<svg xmlns="http://www.w3.org/2000/svg" version="1.1" xmlns:xlink="http://www.w3.org/1999/xlink" width="1000" height="1000"><style>
    #light-icon {
      display: inline;
    }
    #dark-icon {
      display: none;
    }

    @media (prefers-color-scheme: dark) {
      #light-icon {
        display: none;
      }
      #dark-icon {
        display: inline;
      }
    }
  </style><g id="light-icon"><svg xmlns="http://www.w3.org/2000/svg" version="1.1" xmlns:xlink="http://www.w3.org/1999/xlink" width="1000" height="1000"><g clip-path="url(#SvgjsClipPath1119)"><rect width="1000" height="1000" fill="#ffffff"></rect><g transform="matrix(0.9765625,0,0,0.9765625,0,0)"><svg xmlns="http://www.w3.org/2000/svg" version="1.1" xmlns:xlink="http://www.w3.org/1999/xlink" width="1024" height="1024"><svg width="1024" height="1024" viewBox="0 0 1024 1024" fill="none" xmlns="http://www.w3.org/2000/svg">
<g clip-path="url(#clip0_87_55)">
<rect width="1024" height="1024" fill="white"></rect>
<path d="M689.214 583.148H547.793L689.214 441.727L618.58 371.093L618.509 371.164L477.125 229.78H618.472L618.509 229.743L689.143 300.377L689.214 300.306L830.636 441.727L689.214 583.148Z" fill="url(#paint0_linear_87_55)"></path>
<path d="M335.661 441.728L477.083 441.728L335.661 583.149L406.295 653.783L406.366 653.712L547.75 795.096H406.404L406.366 795.133L335.732 724.499L335.661 724.57L194.24 583.149L335.661 441.728Z" fill="url(#paint1_linear_87_55)"></path>
<path d="M441.727 653.859L371.016 583.148L583.148 371.016L653.859 441.727L441.727 653.859Z" fill="url(#paint2_linear_87_55)"></path>
<path d="M741.838 353.127L671.127 423.838L600.417 353.127L671.127 282.417L741.838 353.127Z" fill="url(#paint3_linear_87_55)"></path>
</g>
<defs>
<linearGradient id="paint0_linear_87_55" x1="194.24" y1="553.919" x2="830.636" y2="470.957" gradientUnits="userSpaceOnUse">
<stop stop-color="#003C9F"></stop>
<stop offset="1" stop-color="#C1DEFB"></stop>
</linearGradient>
<linearGradient id="paint1_linear_87_55" x1="194.24" y1="553.919" x2="830.636" y2="470.957" gradientUnits="userSpaceOnUse">
<stop stop-color="#003C9F"></stop>
<stop offset="1" stop-color="#C1DEFB"></stop>
</linearGradient>
<linearGradient id="paint2_linear_87_55" x1="453" y1="582.001" x2="709" y2="324.001" gradientUnits="userSpaceOnUse">
<stop stop-color="#0069CF"></stop>
<stop offset="1" stop-color="#0A5095"></stop>
</linearGradient>
<linearGradient id="paint3_linear_87_55" x1="453" y1="582.001" x2="709" y2="324.001" gradientUnits="userSpaceOnUse">
<stop stop-color="#0069CF"></stop>
<stop offset="1" stop-color="#0A5095"></stop>
</linearGradient>
<clipPath id="clip0_87_55">
<rect width="1024" height="1024" fill="white"></rect>
</clipPath>
<clipPath id="SvgjsClipPath1119"><rect width="1000" height="1000" x="0" y="0" rx="350" ry="350"></rect></clipPath></defs>
</svg></svg></g></g></svg></g><g id="dark-icon"><svg xmlns="http://www.w3.org/2000/svg" version="1.1" xmlns:xlink="http://www.w3.org/1999/xlink" width="1000" height="1000"><g clip-path="url(#SvgjsClipPath1120)"><rect width="1000" height="1000" fill="#000000"></rect><g transform="matrix(0.9765625,0,0,0.9765625,0,0)"><svg xmlns="http://www.w3.org/2000/svg" version="1.1" xmlns:xlink="http://www.w3.org/1999/xlink" width="1024" height="1024"><svg width="1024" height="1024" viewBox="0 0 1024 1024" fill="none" xmlns="http://www.w3.org/2000/svg">
<g clip-path="url(#clip0_87_56)">
<rect width="1024" height="1024" fill="black"></rect>
<path d="M689.214 583.148H547.793L689.214 441.727L618.58 371.093L618.509 371.164L477.125 229.78H618.472L618.509 229.743L689.143 300.377L689.214 300.306L830.636 441.727L689.214 583.148Z" fill="url(#paint0_linear_87_56)"></path>
<path d="M335.661 441.728L477.083 441.728L335.661 583.149L406.295 653.783L406.366 653.712L547.75 795.096H406.404L406.366 795.133L335.732 724.499L335.661 724.57L194.24 583.149L335.661 441.728Z" fill="url(#paint1_linear_87_56)"></path>
<path d="M441.727 653.859L371.016 583.148L583.148 371.016L653.859 441.727L441.727 653.859Z" fill="url(#paint2_linear_87_56)"></path>
<path d="M741.838 353.127L671.127 423.838L600.417 353.127L671.127 282.417L741.838 353.127Z" fill="url(#paint3_linear_87_56)"></path>
</g>
<defs>
<linearGradient id="paint0_linear_87_56" x1="194.24" y1="553.919" x2="830.636" y2="470.957" gradientUnits="userSpaceOnUse">
<stop stop-color="#003C9F"></stop>
<stop offset="1" stop-color="#C1DEFB"></stop>
</linearGradient>
<linearGradient id="paint1_linear_87_56" x1="194.24" y1="553.919" x2="830.636" y2="470.957" gradientUnits="userSpaceOnUse">
<stop stop-color="#003C9F"></stop>
<stop offset="1" stop-color="#C1DEFB"></stop>
</linearGradient>
<linearGradient id="paint2_linear_87_56" x1="453" y1="582.001" x2="709" y2="324.001" gradientUnits="userSpaceOnUse">
<stop stop-color="#0069CF"></stop>
<stop offset="1" stop-color="#0A5095"></stop>
</linearGradient>
<linearGradient id="paint3_linear_87_56" x1="453" y1="582.001" x2="709" y2="324.001" gradientUnits="userSpaceOnUse">
<stop stop-color="#0069CF"></stop>
<stop offset="1" stop-color="#0A5095"></stop>
</linearGradient>
<clipPath id="clip0_87_56">
<rect width="1024" height="1024" fill="white"></rect>
</clipPath>
<clipPath id="SvgjsClipPath1120"><rect width="1000" height="1000" x="0" y="0" rx="350" ry="350"></rect></clipPath></defs>
</svg></svg></g></g></svg></g></svg>