<svg xmlns="http://www.w3.org/2000/svg" version="1.1" xmlns:xlink="http://www.w3.org/1999/xlink" width="1000" height="1000"><style>
    #light-icon {
      display: inline;
    }
    #dark-icon {
      display: none;
    }

    @media (prefers-color-scheme: dark) {
      #light-icon {
        display: none;
      }
      #dark-icon {
        display: inline;
      }
    }
  </style><g id="light-icon"><svg xmlns="http://www.w3.org/2000/svg" version="1.1" xmlns:xlink="http://www.w3.org/1999/xlink" width="1000" height="1000"><g clip-path="url(#SvgjsClipPath1069)"><rect width="1000" height="1000" fill="#ffffff"></rect><g transform="matrix(0.9765625,0,0,0.9765625,0,0)"><svg xmlns="http://www.w3.org/2000/svg" width="1024" height="1024" viewBox="0 0 1024 1024" fill="none"><path d="M688.978 582.268H547.555L688.978 440.902L618.343 370.295L618.272 370.366L476.887 229.037H618.235L618.272 229L688.907 299.606L688.978 299.535L830.4 440.902L688.978 582.268Z" fill="#305CDE"></path><path d="M335.422 440.902L476.845 440.902L335.422 582.268L406.057 652.875L406.128 652.804L547.513 794.133H406.165L406.128 794.17L335.493 723.563L335.422 723.634L194 582.268L335.422 440.902Z" fill="#305CDE"></path><path d="M441.488 652.951L370.777 582.268L582.911 370.218L653.622 440.901L441.488 652.951Z" fill="#002060"></path><path d="M741.602 352.336L670.891 423.02L600.18 352.336L670.891 281.653L741.602 352.336Z" fill="#002060"></path></svg></g></g><defs><clipPath id="SvgjsClipPath1069"><rect width="1000" height="1000" x="0" y="0" rx="500" ry="500"></rect></clipPath></defs></svg></g><g id="dark-icon"><svg xmlns="http://www.w3.org/2000/svg" version="1.1" xmlns:xlink="http://www.w3.org/1999/xlink" width="1000" height="1000"><g clip-path="url(#SvgjsClipPath1070)"><rect width="1000" height="1000" fill="#ffffff"></rect><g transform="matrix(0.9765625,0,0,0.9765625,0,0)"><svg xmlns="http://www.w3.org/2000/svg" width="1024" height="1024" viewBox="0 0 1024 1024" fill="none"><path d="M688.978 582.268H547.555L688.978 440.902L618.343 370.295L618.272 370.366L476.887 229.037H618.235L618.272 229L688.907 299.606L688.978 299.535L830.4 440.902L688.978 582.268Z" fill="#305CDE"></path><path d="M335.422 440.902L476.845 440.902L335.422 582.268L406.057 652.875L406.128 652.804L547.513 794.133H406.165L406.128 794.17L335.493 723.563L335.422 723.634L194 582.268L335.422 440.902Z" fill="#305CDE"></path><path d="M441.488 652.951L370.777 582.268L582.911 370.218L653.622 440.901L441.488 652.951Z" fill="#002060"></path><path d="M741.602 352.336L670.891 423.02L600.18 352.336L670.891 281.653L741.602 352.336Z" fill="#002060"></path></svg></g></g><defs><clipPath id="SvgjsClipPath1070"><rect width="1000" height="1000" x="0" y="0" rx="500" ry="500"></rect></clipPath></defs></svg></g></svg>