<svg width="1024" height="1024" viewBox="0 0 1024 1024" fill="none" xmlns="http://www.w3.org/2000/svg">
<path d="M688.978 582.268H547.555L688.978 440.902L618.343 370.295L618.272 370.366L476.887 229.037H618.235L618.272 229L688.907 299.606L688.978 299.535L830.4 440.902L688.978 582.268Z" fill="#305CDE"/>
<path d="M335.422 440.902L476.845 440.902L335.422 582.268L406.057 652.875L406.128 652.804L547.513 794.133H406.165L406.128 794.17L335.493 723.563L335.422 723.634L194 582.268L335.422 440.902Z" fill="#305CDE"/>
<path d="M441.488 652.951L370.777 582.268L582.911 370.218L653.622 440.901L441.488 652.951Z" fill="#002060"/>
<path d="M741.602 352.336L670.891 423.02L600.18 352.336L670.891 281.653L741.602 352.336Z" fill="#002060"/>
</svg>
